<?xml version="1.0" encoding="utf-8"?>
<!-- Generator: Adobe Illustrator 16.0.0, SVG Export Plug-In . SVG Version: 6.00 Build 0)  -->
<!DOCTYPE svg PUBLIC "-//W3C//DTD SVG 1.1//EN" "http://www.w3.org/Graphics/SVG/1.1/DTD/svg11.dtd">
<svg version="1.1" id="Layer_1" xmlns="http://www.w3.org/2000/svg" xmlns:xlink="http://www.w3.org/1999/xlink" x="0px" y="0px"
	 width="539.333px" height="249.331px" viewBox="0 0 539.333 249.331" enable-background="new 0 0 539.333 249.331"
	 xml:space="preserve">
<g>
	<path fill-rule="evenodd" clip-rule="evenodd" fill="#019DDE" d="M8.042,144.561c1.886-2.586,4.366-4.559,6.872-6.474
		c11.103-8.483,23.236-14.901,36.892-18.232c7.243-1.767,14.554-1.874,21.917-0.986c10.231,1.233,20.081,4.151,30.003,6.749
		c9.242,2.419,18.563,4.394,28.051,5.606c18.046,2.308,35.516,0.261,52.499-6.349c9.224-3.59,18.335-7.468,27.657-10.807
		c9.435-3.38,19.065-5.912,29.084-6.762c8.336-0.707,16.614-0.161,24.847,1.248c14.158,2.422,27.638,7.167,41.101,11.977
		c10.033,3.586,20.023,7.308,30.397,9.849c7.342,1.799,14.766,2.771,22.334,2.229c7.323-0.525,14.454-2.087,21.493-4.116
		c10.016-2.889,19.753-6.617,29.663-9.824c7.49-2.424,15.057-4.515,22.854-5.744c8.918-1.405,17.764-1.011,26.593,0.667
		c17.499,3.326,34.179,9.275,50.663,15.841c5.935,2.363,11.802,4.887,17.612,7.543c0.391,0.179,0.775,0.368,1.143,0.653
		c-1.459,0.12-2.864-0.22-4.26-0.532c-7.99-1.794-15.792-4.285-23.686-6.436c-10.447-2.845-20.949-5.434-31.67-7.015
		c-8.438-1.245-16.917-2.045-25.455-1.264c-7.6,0.695-14.923,2.653-22.124,5.104c-9.301,3.166-18.312,7.089-27.489,10.574
		c-8.972,3.407-18.07,6.371-27.568,7.946c-7.854,1.302-15.738,1.529-23.662,0.712c-13.727-1.416-26.804-5.447-39.798-9.815
		c-10.554-3.548-21.001-7.421-31.76-10.334c-9.453-2.56-19.015-4.309-28.875-3.737c-7.913,0.459-15.552,2.26-23.065,4.683
		c-9.01,2.904-17.735,6.576-26.611,9.846c-9.196,3.388-18.525,6.271-28.258,7.681c-7.48,1.082-14.98,1.127-22.493,0.465
		c-16.022-1.411-31.341-5.938-46.644-10.542c-8.829-2.655-17.656-5.29-26.705-7.163c-12.118-2.508-23.827-1.158-35.321,3.104
		c-9.004,3.338-17.391,7.836-25.27,13.305c-0.259,0.18-0.542,0.324-0.814,0.484C8.145,144.646,8.095,144.602,8.042,144.561z"/>
	<path fill-rule="evenodd" clip-rule="evenodd" fill="#E77902" d="M396.322,209.606c-10.921-0.08-20.853-2.976-30.383-7.481
		c-2.239-1.06-4.447-2.188-6.528-3.528c-0.759-0.488-1.115-0.348-1.661,0.27c-5.591,6.32-11.356,12.471-17.831,17.911
		c-2.114,1.776-4.297,3.461-6.774,4.716c-1,0.506-2.024,0.954-3.173,0.991c-2.134,0.068-3.578-1.83-2.901-3.86
		c0.61-1.828,1.938-3.193,3.121-4.643c1.667-2.042,3.396-4.036,4.449-6.499c1.239-2.896,1.109-5.612-0.743-8.276
		c-2.599-3.737-6.312-5.905-10.32-7.714c-1.237-0.559-2.476-1.114-3.7-1.697c-0.948-0.453-1.529-1.186-1.375-2.285
		c0.147-1.052,0.999-1.39,1.884-1.57c2.748-0.563,5.495-0.256,8.224,0.15c9.224,1.372,18.177,3.881,27.098,6.521
		c0.53,0.157,1.011,0.523,1.432-0.361c6.086-12.8,15.985-21.535,28.952-26.938c7.932-3.304,16.247-4.889,24.802-5.339
		c0.679-0.036,1.122-0.045,0.657,0.85c-2.434,4.673-2.904,9.693-2.27,14.807c1.04,8.386,4.156,15.942,9.528,22.52
		c0.889,1.088,1.879,2.079,3.019,2.901c0.623,0.45,0.832,0.725,0.004,1.246c-5.479,3.452-11.414,5.668-17.8,6.701
		C401.382,209.427,398.71,209.56,396.322,209.606z"/>
	<path fill-rule="evenodd" clip-rule="evenodd" fill="#019DDE" d="M163.604,89.791c3.017,0.297,6.033,0.61,9.051,0.887
		c4.338,0.397,8.676,0.785,13.018,1.135c0.716,0.058,0.826,0.237,0.668,0.932c-0.461,2.023-0.888,4.058-1.198,6.108
		c-0.143,0.941-0.526,1.07-1.34,0.917c-6.944-1.309-13.899-2.556-20.836-3.903c-4.191-0.814-8.331-1.918-12.54-2.615
		c-2.864-0.474-5.801-0.484-8.66-1.125c-8.746-1.961-15.882-6.277-19.897-14.526c-5.103-10.484-4.075-20.852,1.974-30.606
		c5.511-8.888,13.899-13.682,24.104-15.318c7.415-1.188,14.705-0.588,21.566,2.648c9.878,4.661,14.825,12.701,15.257,23.487
		c0.519,12.938-6.537,26.208-20.667,31.459c-0.179,0.066-0.343,0.173-0.513,0.26C163.596,89.617,163.6,89.704,163.604,89.791z
		 M151.362,86.529c9.398-0.362,17.278-4.826,21.767-14.497c2.217-4.777,2.882-9.868,2.333-15.099
		c-0.715-6.811-3.805-12.216-9.683-15.866c-4.701-2.919-9.871-3.758-15.315-3.19c-8.532,0.89-15.167,4.753-19.245,12.47
		c-2.721,5.15-3.731,10.66-3.089,16.471C129.431,78.589,138.501,86.664,151.362,86.529z"/>
	<path fill-rule="evenodd" clip-rule="evenodd" fill="#019DDE" d="M72.152,18.533c0.788,1.307,1.5,2.45,2.176,3.615
		c9.037,15.581,17.509,31.475,26.269,47.21c3.341,6.001,6.64,12.028,10.294,17.848c0.437,0.696,0.283,0.972-0.342,1.369
		c-2.26,1.434-4.505,2.894-6.709,4.411c-0.743,0.512-1.027,0.463-1.463-0.372c-4.107-7.854-8.285-15.671-12.387-23.529
		c-0.511-0.979-1.102-1.217-2.152-1.167c-7.228,0.346-14.458,0.621-21.688,0.92c-3.555,0.147-7.109,0.328-10.665,0.427
		c-0.794,0.022-1.007,0.488-1.252,1.038c-2.474,5.539-4.947,11.078-7.42,16.617c-0.895,2.004-1.801,4.004-2.68,6.014
		c-0.266,0.608-0.484,0.89-1.199,0.414c-2.226-1.485-4.494-2.908-6.773-4.311c-0.549-0.338-0.54-0.605-0.261-1.12
		c11.964-22.172,23.146-44.751,34.935-67.014C71.224,20.167,71.644,19.444,72.152,18.533z M58.231,62.588
		c0.354,0.03,0.544,0.067,0.733,0.059c8.783-0.352,17.565-0.722,26.349-1.048c1.172-0.043,0.727-0.526,0.437-1.074
		c-4.354-8.214-8.7-16.433-13.065-24.642c-0.205-0.386-0.3-0.902-0.89-1.114C67.076,43.923,62.782,53.258,58.231,62.588z"/>
	<path fill-rule="evenodd" clip-rule="evenodd" fill="#019DDE" d="M464.477,93.326c-6.608-0.029-12.017-0.926-17.021-3.509
		c-8.842-4.564-13.781-11.941-14.612-21.76c-0.887-10.48,2.209-19.767,9.842-27.237c5.824-5.7,13.003-8.556,21.025-9.403
		c6.498-0.686,12.865-0.14,18.899,2.537c9.594,4.256,14.724,11.815,15.874,22.114c1.101,9.852-1.692,18.594-8.123,26.099
		c-5.335,6.227-12.327,9.469-20.341,10.668C467.846,93.159,465.655,93.346,464.477,93.326z M489.373,60.647
		c0-0.919,0.071-1.845-0.011-2.757c-0.619-6.839-3.307-12.561-9.181-16.447c-4.839-3.202-10.237-4.127-15.933-3.573
		c-7.172,0.699-13.115,3.722-17.351,9.638c-4.455,6.224-5.785,13.262-4.689,20.743c0.81,5.528,3.283,10.239,7.696,13.801
		c3.811,3.076,8.242,4.506,13.084,4.664c7.4,0.241,13.98-1.868,19.288-7.201C487.455,74.313,489.391,67.822,489.373,60.647z"/>
	<path fill-rule="evenodd" clip-rule="evenodd" fill="#019DDE" d="M390.978,87.49c-2.146,1.897-4.286,3.757-6.384,5.664
		c-0.63,0.572-0.81,0.008-1.073-0.317c-4.541-5.582-9.084-11.162-13.604-16.761c-3.113-3.857-6.176-7.755-9.298-11.605
		c-0.575-0.709-0.567-0.991,0.305-1.427c3.299-1.652,6.435-3.562,8.965-6.316c1.826-1.988,3.067-4.264,3.464-6.971
		c0.449-3.065-0.525-5.51-3.107-7.26c-2.618-1.774-5.625-2.431-8.677-2.886c-2.252-0.336-4.531-0.44-6.809-0.547
		c-0.992-0.047-1.255,0.209-1.25,1.224c0.063,13.754-0.091,27.51,0.251,41.263c0.078,3.118,0.125,6.236,0.25,9.352
		c0.032,0.799-0.188,1.01-0.973,0.995c-2.479-0.048-4.959-0.046-7.438,0c-0.759,0.014-0.905-0.212-0.892-0.951
		c0.338-18.232,0.268-36.463-0.101-54.694c-0.02-0.958-0.089-1.917-0.171-2.873c-0.044-0.521,0.02-0.8,0.666-0.8
		c7.874,0,15.758-0.133,23.528,1.474c2.789,0.577,5.473,1.484,7.946,2.924c6.074,3.535,7.958,9.399,5.057,15.813
		c-1.928,4.261-5.24,7.29-8.991,9.909c-0.295,0.206-0.596,0.403-0.896,0.601c-1.65,1.083-1.663,1.093-0.325,2.64
		c6.12,7.079,12.416,13.999,18.849,20.794C390.49,86.963,390.704,87.197,390.978,87.49z"/>
	<path fill-rule="evenodd" clip-rule="evenodd" fill="#019DDE" d="M254.35,46.946c0.098,6.24,0.081,12.477-0.651,18.688
		c-0.823,6.984-2.718,13.53-7.49,18.968c-5.125,5.84-11.688,8.418-19.303,8.689c-4.188,0.149-8.321-0.168-12.245-1.773
		c-7.551-3.088-11.768-9.036-14.003-16.606c-1.264-4.281-1.643-8.711-1.88-13.142c-0.497-9.272-0.246-18.553-0.233-27.831
		c0.001-0.738,0.131-1.075,0.975-1.055c2.359,0.054,4.72,0.055,7.079,0c0.866-0.02,0.947,0.316,0.909,1.061
		c-0.508,9.832-0.575,19.669-0.082,29.501c0.19,3.792,0.715,7.555,2.091,11.146c3.128,8.163,9.117,12.127,17.884,11.813
		c7.841-0.281,14.077-5.249,16.432-13.115c1.12-3.74,1.528-7.594,1.695-11.472c0.411-9.516,0.369-19.03-0.199-28.54
		c-0.098-1.638-0.061-1.64,1.593-1.64c2.12,0,4.241,0.035,6.359-0.018c0.816-0.021,1.095,0.184,1.087,1.048
		C254.328,37.427,254.35,42.187,254.35,46.946z"/>
	<path fill-rule="evenodd" clip-rule="evenodd" fill="#E77902" d="M109.07,191.963c-0.183,2.416-0.407,4.83-0.541,7.249
		c-0.433,7.867-0.748,15.738-0.802,23.618c-0.003,0.554-0.057,1.126-0.207,1.655c-0.436,1.529-1.898,2.475-3.381,2.251
		c-1.604-0.241-2.773-1.514-2.749-3.127c0.055-3.639,0.126-7.277,0.257-10.914c0.251-6.993,0.514-13.988,1.107-20.962
		c0.392-4.615,0.696-9.249,1.872-13.758c0.2-0.767,0.461-1.541,0.836-2.234c1.31-2.419,4.275-2.771,6.133-0.74
		c1.512,1.652,1.79,3.796,2.174,5.87c0.973,5.26,1.692,10.575,3.148,15.73c1.033,3.659,2.359,7.232,5.136,10.02
		c3.22,3.231,8.365,3.196,11.607-0.037c2.072-2.065,3.17-4.67,4.131-7.352c1.56-4.354,2.125-8.921,2.861-13.451
		c0.397-2.443,0.78-4.89,1.201-7.33c0.185-1.069,0.601-2.059,1.18-2.987c1.875-3.006,5.4-3.01,7.289,0.016
		c1.126,1.804,1.495,3.851,1.85,5.902c1.462,8.455,1.799,17.006,2.137,25.553c0.215,5.435,0.35,10.872,0.479,16.31
		c0.052,2.188-1.343,3.603-3.334,3.514c-1.739-0.078-2.905-1.397-2.961-3.41c-0.144-5.156-0.238-10.314-0.41-15.471
		c-0.212-6.381-0.594-12.754-1.449-19.137c-0.312,1.704-0.619,3.408-0.935,5.111c-0.94,5.063-2.382,9.948-5.279,14.277
		c-4.075,6.089-10.202,8.289-16.735,6.626c-3.723-0.947-6.329-3.455-8.419-6.553c-2.82-4.18-4.252-8.903-5.334-13.761
		c-0.188-0.845-0.379-1.688-0.57-2.533C109.264,191.927,109.167,191.945,109.07,191.963z"/>
	<path fill-rule="evenodd" clip-rule="evenodd" fill="#019DDE" d="M295.409,29.681c0.628,1.007,1.266,2.003,1.877,3.015
		c9.753,16.134,18.993,32.569,28.668,48.749c1.312,2.194,2.663,4.365,4.037,6.521c0.36,0.565,0.328,0.847-0.272,1.196
		c-2.174,1.267-4.341,2.549-6.46,3.905c-0.737,0.472-1.001,0.319-1.393-0.393c-3.563-6.471-7.185-12.91-10.735-19.388
		c-0.463-0.844-0.963-1.021-1.879-0.981c-9.387,0.399-18.775,0.76-28.166,1.069c-0.994,0.033-1.447,0.375-1.853,1.241
		c-2.806,6.002-5.686,11.97-8.491,17.973c-0.394,0.842-0.716,0.919-1.477,0.462c-1.917-1.151-3.867-2.248-5.832-3.314
		c-0.646-0.352-0.826-0.615-0.426-1.343c10.551-19.216,21.075-38.446,31.609-57.671C294.803,30.379,294.92,29.976,295.409,29.681z
		 M283.248,67.085c0.984,0,1.782,0.028,2.579-0.004c6.784-0.283,13.568-0.598,20.354-0.845c1.064-0.039,1.196-0.217,0.673-1.161
		c-2.905-5.232-5.753-10.497-8.63-15.745c-0.995-1.815-2.016-3.617-3.121-5.596C290.946,51.516,287.214,59.301,283.248,67.085z"/>
	<path fill-rule="evenodd" clip-rule="evenodd" fill="#E77902" d="M64.124,226.78c-6.119-0.165-11.904-1.502-16.828-5.339
		c-5.253-4.094-7.48-9.515-6.506-16.16c0.266-1.813,1.779-2.962,3.465-2.711c1.822,0.271,3,1.764,2.72,3.592
		c-0.722,4.723,1.133,8.295,4.949,10.898c4.166,2.842,8.882,3.644,13.832,3.355c3.363-0.196,6.53-1.078,9.448-2.788
		c5.025-2.945,7.798-8.814,6.668-14.136c-0.577-2.715-2.225-4.738-4.28-6.478c-3.2-2.708-6.926-4.567-10.597-6.514
		c-2.999-1.59-6.015-3.146-8.997-4.767c-3.54-1.922-6.788-4.242-9.334-7.408c-7.022-8.732-4.164-19.814,6.289-24.233
		c6.943-2.935,13.92-2.149,20.737,0.738c1.693,0.718,3.321,1.569,4.886,2.539c1.961,1.216,2.471,2.786,1.462,4.518
		c-0.993,1.704-2.691,2.041-4.649,0.893c-4.381-2.57-9.016-4.284-14.179-4.166c-2.901,0.065-5.591,0.908-8.031,2.475
		c-3.827,2.456-5.052,6.773-3.14,10.898c1.038,2.239,2.731,3.91,4.641,5.404c2.567,2.007,5.473,3.44,8.33,4.957
		c3.351,1.778,6.714,3.531,10.062,5.315c2.335,1.245,4.499,2.745,6.537,4.435c8.794,7.29,8.171,17.059,3.514,24.536
		c-3.562,5.718-9.098,8.425-15.506,9.634C67.809,226.609,65.979,226.806,64.124,226.78z"/>
	<path fill-rule="evenodd" clip-rule="evenodd" fill="#E77902" d="M205.349,212.736c0,3.318,0.008,6.637-0.003,9.956
		c-0.006,1.88-0.811,3.066-2.322,3.492c-1.462,0.411-2.866-0.181-3.785-1.767c-0.402-0.694-0.809-0.325-1.193-0.193
		c-2.839,0.974-5.728,1.761-8.703,2.162c-3.819,0.514-7.646,0.742-11.415-0.363c-5.012-1.472-10.034-5.487-10.263-12.127
		c-0.151-4.391,1.479-8.111,4.43-11.293c3.733-4.025,8.509-5.98,13.813-6.789c3.582-0.547,7.177-0.438,10.745,0.196
		c0.959,0.171,1.36,0.068,1.153-1.081c-0.47-2.599-0.992-5.177-1.996-7.629c-2.027-4.947-5.778-7.516-11.067-7.792
		c-3.701-0.193-7.229,0.464-10.419,2.521c-1.374,0.887-3.147,0.393-4.09-1.023c-0.956-1.436-0.644-3.302,0.813-4.364
		c1.733-1.262,3.712-2.02,5.776-2.544c4.832-1.229,9.663-1.386,14.376,0.443c6.313,2.448,9.989,7.227,11.592,13.682
		c1.675,6.745,2.22,13.632,2.402,20.555c0.035,1.319,0.005,2.64,0.005,3.959C205.248,212.736,205.299,212.736,205.349,212.736z
		 M198.996,210.886c-0.036,0-0.072,0-0.108-0.001c-0.118-2.435-0.252-4.869-0.343-7.305c-0.021-0.558-0.16-0.854-0.759-0.963
		c-4.072-0.745-8.163-1.226-12.255-0.291c-4.409,1.006-8.302,2.848-10.62,7.065c-2.152,3.914-0.991,7.751,3.018,9.747
		c1.976,0.983,4.103,1.328,6.271,1.337c4.946,0.02,9.618-1.326,14.228-2.963c0.557-0.197,0.578-0.528,0.574-0.991
		C198.988,214.644,198.996,212.765,198.996,210.886z"/>
	<path fill-rule="evenodd" clip-rule="evenodd" fill="#389946" d="M485.309,131.655c2.843,1.927,4.626,4.344,5.972,7.104
		c2.8,5.745,3.354,11.865,2.92,18.136c-0.432,6.256-2.562,11.998-5.318,17.556c-1.4,2.826-2.861,5.626-3.706,8.699
		c-0.911,3.317-0.584,6.483,0.885,9.566c1.525,3.2,3.711,5.97,5.734,8.845c1.128,1.604,2.219,3.227,3.183,4.938
		c1.952,3.466,2.344,7.095,1.182,10.882c-1.871,6.096-5.266,11.356-9.054,16.396c-0.135,0.18-0.267,0.472-0.539,0.35
		c-0.138-0.062-0.223-0.317-0.268-0.501c-0.969-3.926-1.833-7.864-1.7-11.95c0.076-2.35,0.954-4.527,1.429-6.788
		c1.258-5.997,0.012-11.434-3.249-16.484c-3.46-5.36-5.527-11.298-6.727-17.467c-0.84-4.326-0.196-8.694,1.976-12.688
		c0.404-0.742,0.872-1.446,1.487-2.023c3.513-3.299,5.082-7.56,6.104-12.119c1.414-6.319,0.926-12.642,0.137-18.972
		C485.622,134.069,485.482,133.004,485.309,131.655z"/>
	<path fill-rule="evenodd" clip-rule="evenodd" fill="#E77902" d="M270.732,189.939c0-1.442-0.039-3.244,0.019-5.042
		c0.024-0.771-0.218-0.978-0.949-0.863c-0.907,0.142-1.831,0.175-2.74,0.307c-1.85,0.271-3.193-0.683-3.616-2.606
		c-0.346-1.578,0.62-3.097,2.338-3.468c1.324-0.286,2.68-0.459,4.03-0.574c0.882-0.075,1.128-0.391,1.19-1.297
		c0.489-7.096,1.033-14.189,2.328-21.198c0.384-2.072,1.811-3.15,3.708-2.818c1.771,0.311,2.789,1.992,2.471,4.011
		c-1.005,6.359-1.73,12.749-2.093,19.18c-0.053,0.939,0.116,1.218,1.14,1.08c6.138-0.825,12.284-1.579,18.429-2.349
		c0.985-0.123,1.985-0.348,2.926,0.215c1.188,0.712,1.83,2.132,1.573,3.495c-0.229,1.218-1.266,2.254-2.645,2.437
		c-3.843,0.508-7.692,0.955-11.54,1.426c-3.173,0.388-6.345,0.786-9.52,1.154c-0.51,0.059-0.787,0.166-0.788,0.768
		c-0.007,8.245,0.126,16.478,2.405,24.495c0.891,3.131,2.088,6.134,4.272,8.624c1.735,1.978,3.774,3.492,6.525,3.604
		c4.345,0.176,8.328-3.184,9.341-7.789c0.294-1.337,0.337-2.693,0.398-4.052c0.097-2.145,1.309-3.366,3.266-3.32
		c1.869,0.044,3.006,1.317,3.035,3.42c0.049,3.458-0.627,6.752-2.289,9.807c-5.057,9.292-16.317,11.015-23.898,3.635
		c-3.635-3.538-5.635-7.984-6.893-12.813C271.524,203.14,270.97,196.739,270.732,189.939z"/>
	<path fill-rule="evenodd" clip-rule="evenodd" fill="#616265" d="M435.337,238.663c2.949-0.509,5.646-1.021,8.229-1.984
		c3.273-1.221,6.248-2.886,8.382-5.752c2.756-3.703,2.771-7.88,1.994-12.167c-0.179-0.98-0.409-1.96-0.722-2.905
		c-0.25-0.755-0.02-1.102,0.683-1.348c1.493-0.522,3.05-0.643,4.604-0.733c3.352-0.194,6.709-0.428,10.034,0.303
		c5.801,1.273,9.208,4.969,10.701,10.595c0.35,1.318,0.498,2.671,0.647,4.021c0.504,4.534-1.512,7.887-5.011,10.494
		c-3.96,2.952-8.556,4.301-13.36,4.91c-6.118,0.775-12.214,0.593-18.185-1.143C440.475,242.123,437.795,240.909,435.337,238.663z"/>
	<path fill-rule="evenodd" clip-rule="evenodd" fill="#616265" d="M431.587,234.185c-5.082-0.063-10.045-0.688-14.576-3.227
		c-1.655-0.927-3.113-2.099-4.133-3.741c-1.47-2.368-1.315-4.481,0.499-6.594c1.935-2.254,4.375-3.846,6.98-5.186
		c5.695-2.931,11.716-4.638,18.161-4.642c1.568,0,3.105,0.271,4.571,0.848c4.664,1.831,7.384,7.17,6.352,12.53
		c-0.938,4.877-4.374,7.312-8.752,8.748C437.739,233.89,434.684,234.199,431.587,234.185z"/>
	<path fill-rule="evenodd" clip-rule="evenodd" fill="#E77902" d="M417.617,173.792c0.047-4.96,1.026-8.827,2.815-12.516
		c0.378-0.78,0.804-0.895,1.577-0.693c9.88,2.571,19.441,5.957,28.367,10.988c1.399,0.79,1.38,0.772,0.53,2.042
		c-5.176,7.73-11.008,14.902-17.948,21.132c-0.892,0.8-1.827,1.553-2.714,2.358c-0.435,0.396-0.751,0.45-1.201-0.005
		C422.394,190.386,417.963,182.631,417.617,173.792z M431.924,167.903c-2.458,0.018-4.45,2.048-4.439,4.524
		c0.011,2.429,2.087,4.44,4.562,4.42c2.435-0.021,4.468-2.092,4.455-4.538C436.488,169.893,434.405,167.887,431.924,167.903z"/>
	<path fill-rule="evenodd" clip-rule="evenodd" fill="#E77902" d="M224.657,198.292c1.58-3.568,3.104-7.075,5.052-10.382
		c2.562-4.349,5.657-8.234,9.852-11.133c3.888-2.686,8.216-3.818,12.921-3.542c1.735,0.103,3.042,1.452,3.03,3.102
		c-0.013,1.803-1.3,3.239-3.076,3.125c-5.866-0.379-10.207,2.319-13.775,6.637c-4.241,5.132-6.909,11.092-8.936,17.356
		c-2.13,6.583-3.636,13.315-4.562,20.177c-0.273,2.027-1.585,3.218-3.286,3.124c-1.739-0.096-2.965-1.526-3.012-3.539
		c-0.356-15.427-0.71-30.854-1.06-46.281c-0.049-2.171,1.267-3.677,3.203-3.696c1.812-0.019,3.072,1.384,3.124,3.512
		c0.164,6.795,0.316,13.589,0.475,20.383C224.617,197.521,224.64,197.906,224.657,198.292z"/>
	<path fill-rule="evenodd" clip-rule="evenodd" fill="#389946" d="M516.309,141.015c1.079,0.855,1.655,1.85,2.188,2.859
		c2.281,4.32,2.493,8.946,1.934,13.668c-0.803,6.775-3.562,12.72-7.714,18.074c-1.371,1.769-2.697,3.574-3.978,5.408
		c-2.576,3.691-2.962,7.646-1.399,11.856c1.003,2.701,2.284,5.28,3.359,7.947c1.238,3.069,2.27,6.18,1.153,9.536
		c-0.214,0.643-0.458,1.281-0.759,1.888c-2.525,5.076-6.476,8.956-10.813,12.888c-0.312-2.231-0.233-4.236-0.144-6.239
		c0.127-2.825,0.744-5.495,2.091-8.04c2.821-5.327,2.978-10.795,0.741-16.425c-1.883-4.742-2.553-9.797-2.352-14.83
		c0.196-4.928,1.939-9.303,6.363-12.284c3.348-2.256,4.985-5.851,6.424-9.49c2.045-5.175,2.377-10.655,2.842-16.11
		C516.26,141.563,516.274,141.405,516.309,141.015z"/>
	<path fill-rule="evenodd" clip-rule="evenodd" fill="#019DDE" d="M414.976,62.224c-0.024,9.518,0.105,19.034,0.413,28.546
		c0.029,0.908-0.19,1.157-1.1,1.131c-2.358-0.066-4.72-0.072-7.077,0.001c-0.966,0.03-1.172-0.263-1.153-1.194
		c0.259-13.034,0.382-26.07,0.214-39.106c-0.076-5.917-0.224-11.833-0.428-17.747c-0.039-1.122,0.292-1.312,1.303-1.281
		c2.397,0.073,4.799,0.061,7.197,0.003c0.87-0.021,1.143,0.153,1.1,1.103C415.008,43.19,414.949,52.707,414.976,62.224z"/>
	<path fill-rule="evenodd" clip-rule="evenodd" fill="#019DDE" d="M306.421,16.55c0.056,0.336-0.22,0.387-0.416,0.491
		c-4.646,2.468-9.296,4.929-13.938,7.405c-0.383,0.204-0.589,0.176-0.887-0.176c-2.328-2.75-2.331-2.734,0.388-5.065
		c3.243-2.779,6.488-5.556,9.695-8.375c0.639-0.562,0.937-0.584,1.413,0.169c1.064,1.685,2.229,3.307,3.353,4.955
		C306.163,16.151,306.291,16.353,306.421,16.55z"/>
	<path fill-rule="evenodd" clip-rule="evenodd" fill="#019DDE" d="M454.919,145.371c-2.783-0.02-4.967-2.279-4.923-5.098
		c0.042-2.724,2.288-4.91,5.022-4.89c2.707,0.02,4.939,2.271,4.943,4.985C459.966,143.142,457.699,145.39,454.919,145.371z"/>
	<path fill-rule="evenodd" clip-rule="evenodd" fill="#019DDE" d="M472.769,148.262c-0.025,2.209-1.87,4.02-4.078,4.004
		c-2.268-0.017-4.065-1.888-4.017-4.181c0.047-2.209,1.915-3.991,4.134-3.943C471.022,144.189,472.794,146.032,472.769,148.262z"/>
	<path fill-rule="evenodd" clip-rule="evenodd" fill="#019DDE" d="M471.825,165.703c0.011,1.529-1.288,2.832-2.815,2.825
		c-1.529-0.007-2.81-1.316-2.788-2.855c0.02-1.491,1.256-2.722,2.762-2.749C470.543,162.896,471.814,164.14,471.825,165.703z"/>
	<path fill-rule="evenodd" clip-rule="evenodd" fill="#019DDE" d="M8.19,144.696c-0.078,0.083-0.156,0.165-0.234,0.247l0.016,0.023
		c-0.116-0.16-0.033-0.285,0.071-0.405C8.095,144.602,8.145,144.646,8.19,144.696z"/>
	<path fill-rule="evenodd" clip-rule="evenodd" fill="#019DDE" d="M7.957,144.943c-0.031,0.021-0.061,0.047-0.095,0.063
		c-0.014,0.006-0.038-0.01-0.057-0.016c0.055-0.009,0.111-0.018,0.167-0.025C7.972,144.967,7.957,144.943,7.957,144.943z"/>
	<path fill-rule="evenodd" clip-rule="evenodd" fill="#FEFEFE" d="M151.362,86.529c-12.861,0.135-21.932-7.94-23.232-19.712
		c-0.642-5.811,0.369-11.321,3.089-16.471c4.077-7.716,10.713-11.58,19.245-12.47c5.444-0.567,10.614,0.271,15.315,3.19
		c5.878,3.649,8.968,9.055,9.683,15.866c0.549,5.231-0.116,10.322-2.333,15.099C168.641,81.703,160.76,86.167,151.362,86.529z"/>
	<path fill-rule="evenodd" clip-rule="evenodd" fill="#FEFEFE" d="M58.231,62.588c4.551-9.33,8.845-18.666,13.563-27.819
		c0.59,0.211,0.685,0.728,0.89,1.114c4.365,8.209,8.711,16.428,13.065,24.642c0.29,0.548,0.736,1.03-0.437,1.074
		c-8.784,0.327-17.566,0.696-26.349,1.048C58.776,62.655,58.585,62.619,58.231,62.588z"/>
	<path fill-rule="evenodd" clip-rule="evenodd" fill="#FEFEFE" d="M489.373,60.647c0.018,7.174-1.918,13.666-7.096,18.868
		c-5.308,5.333-11.888,7.441-19.288,7.201c-4.842-0.158-9.273-1.587-13.084-4.664c-4.413-3.562-6.887-8.272-7.696-13.801
		c-1.096-7.481,0.234-14.519,4.689-20.743c4.235-5.917,10.179-8.939,17.351-9.638c5.695-0.555,11.094,0.371,15.933,3.573
		c5.874,3.886,8.562,9.607,9.181,16.447C489.444,58.802,489.373,59.728,489.373,60.647z"/>
	<path fill-rule="evenodd" clip-rule="evenodd" fill="#FEFEFE" d="M283.248,67.085c3.966-7.784,7.698-15.569,11.855-23.352
		c1.105,1.979,2.126,3.781,3.121,5.596c2.877,5.249,5.725,10.513,8.63,15.745c0.523,0.943,0.392,1.122-0.673,1.161
		c-6.786,0.247-13.57,0.563-20.354,0.845C285.03,67.113,284.232,67.085,283.248,67.085z"/>
	<path fill-rule="evenodd" clip-rule="evenodd" fill="#FEFEFE" d="M198.996,210.886c0,1.879-0.008,3.758,0.006,5.636
		c0.003,0.463-0.018,0.794-0.574,0.991c-4.61,1.637-9.282,2.982-14.228,2.963c-2.168-0.009-4.296-0.354-6.271-1.337
		c-4.008-1.996-5.169-5.833-3.018-9.747c2.318-4.218,6.211-6.06,10.62-7.065c4.093-0.935,8.183-0.454,12.255,0.291
		c0.599,0.109,0.738,0.405,0.759,0.963c0.091,2.436,0.225,4.87,0.343,7.305C198.924,210.886,198.96,210.886,198.996,210.886z"/>
	<path fill-rule="evenodd" clip-rule="evenodd" fill="#FEFEFE" d="M431.924,167.903c2.481-0.017,4.564,1.989,4.577,4.406
		c0.013,2.446-2.021,4.518-4.455,4.538c-2.475,0.021-4.551-1.991-4.562-4.42C427.474,169.951,429.466,167.921,431.924,167.903z
		 M434.696,171.952c-0.016-1.411-1.128-2.525-2.5-2.502c-1.324,0.021-2.418,1.134-2.425,2.466c-0.008,1.45,1.033,2.529,2.442,2.53
		C433.636,174.447,434.71,173.366,434.696,171.952z"/>
	<path fill-rule="evenodd" clip-rule="evenodd" fill="#E77902" d="M434.696,171.952c0.014,1.414-1.061,2.495-2.482,2.494
		c-1.409-0.001-2.45-1.08-2.442-2.53c0.007-1.332,1.101-2.444,2.425-2.466C433.568,169.427,434.681,170.541,434.696,171.952z"/>
</g>
</svg>
